# File created by Blade
# Date/Time:  Fri Jan 16 17:52:57 2015
#---------------------------------------------------------
:version 1.10
:name HOM
:units
  mass 1.0
  length 1.000000
  angle deg
:documentation
     Acclaim Skeleton File
:root
   axis xyz
   order TX TY TZ RX RY RZ
   position 0.000000 0.000000 0.000000
   orientation 0 0 0
:bonedata
   begin
      id 1
      name Spine_dum
      direction 0.000000 1.000000 0.000000
      length 7.170412
      axis 0.0 0.0 0.0 xyz
   end
   begin
      id 2
      name LeftUpLeg_dum
      direction 1.000000 0.000000 0.000000
      length 4.318350
      axis 0.0 0.0 0.0 xyz
   end
   begin
      id 3
      name RightUpLeg_dum
      direction -1.000000 0.000000 0.000000
      length 4.318350
      axis 0.0 0.0 0.0 xyz
   end
   begin
      id 4
      name Spine
      direction 0.000000 1.000000 0.000000
      length 0.000000
      axis 0.0 0.0 0.0 xyz
      dof rx ry rz
   end
   begin
      id 5
      name Spine_dum1
      direction 0.000000 1.000000 0.000000
      length 14.276153
      axis 0.0 0.0 0.0 xyz
   end
   begin
      id 6
      name Spine_dum2
      direction 0.000000 1.000000 0.000000
      length 10.718243
      axis 0.0 0.0 0.0 xyz
   end
   begin
      id 7
      name Spine_dum3
      direction 0.000000 1.000000 0.000000
      length 10.718243
      axis 0.0 0.0 0.0 xyz
   end
   begin
      id 8
      name Head
      direction 0.000000 1.000000 0.000000
      length 4.527550
      axis 0.0 0.0 0.0 xyz
      dof rx ry rz
   end
   begin
      id 9
      name LeftShoulder
      direction 1.000000 0.000000 0.000000
      length 7.058872
      axis 0.0 0.0 -90.0 xyz
      dof rx ry rz
   end
   begin
      id 10
      name LeftArm
      direction 1.000000 0.000000 0.000000
      length 10.955525
      axis 0.0 0.0 -90.0 xyz
      dof rx ry rz
   end
   begin
      id 11
      name LeftForeArm
      direction 1.000000 0.000000 0.000000
      length 8.193716
      axis 0.0 0.0 -90.0 xyz
      dof ry rz rx
   end
   begin
      id 12
      name LeftHand
      direction 0.000000 0.000000 0.000000
      length 0.000000
      axis 0.0 0.0 -90.0 xyz
      dof rx ry rz
   end
   begin
      id 13
      name LeftHand_dum1
      direction 0.000000 0.000000 0.000000
      length 0.000000
      axis 0.0 0.0 -90.0 xyz
   end
   begin
      id 14
      name LeftHand_dum2
      direction 1.000000 0.000000 0.000000
      length 3.937000
      axis 0.0 0.0 -90.0 xyz
   end
   begin
      id 15
      name LeftHandThumb1
      direction 0.000000 0.000000 1.000000
      length 3.937000
      axis 0.0 0.0 -90.0 xyz
      dof rx rz ry
   end
   begin
      id 16
      name RightShoulder
      direction -1.000000 0.000000 0.000000
      length 7.058872
      axis 0.0 0.0 90.0 xyz
      dof rx ry rz
   end
   begin
      id 17
      name RightArm
      direction -1.000000 0.000000 0.000000
      length 10.955525
      axis 0.0 0.0 90.0 xyz
      dof rx ry rz
   end
   begin
      id 18
      name RightForeArm
      direction -1.000000 0.000000 0.000000
      length 8.193716
      axis 0.0 0.0 90.0 xyz
      dof ry rz rx
   end
   begin
      id 19
      name RightHand
      direction 0.000000 0.000000 0.000000
      length 0.000000
      axis 0.0 0.0 90.0 xyz
      dof rx ry rz
   end
   begin
      id 20
      name RightHand_dum1
      direction 0.000000 0.000000 0.000000
      length 0.000000
      axis 0.0 0.0 90.0 xyz
   end
   begin
      id 21
      name RightHand_dum2
      direction -1.000000 0.000000 0.000000
      length 3.937000
      axis 0.0 0.0 90.0 xyz
   end
   begin
      id 22
      name RightHandThumb1
      direction 0.000000 0.000000 1.000000
      length 3.937000
      axis 0.0 0.0 90.0 xyz
      dof rx rz ry
   end
   begin
      id 23
      name LeftUpLeg
      direction 0.000000 -1.000000 0.000000
      length 17.323638
      axis 0.0 0.0 0.0 xyz
      dof rx ry rz
   end
   begin
      id 24
      name LeftLeg
      direction 0.000000 -1.000000 0.000000
      length 16.270368
      axis 0.0 0.0 0.0 xyz
      dof rx ry rz
   end
   begin
      id 25
      name LeftFoot
      direction 0.000000 -0.258819 0.965926
      length 4.922846
      axis 15.0 0.0 0.0 xyz
      dof rx ry rz
   end
   begin
      id 26
      name LeftToeBase
      direction 0.000000 0.000000 1.000000
      length 2.952750
      axis 0.0 0.0 0.0 xyz
      dof rx ry rz
   end
   begin
      id 27
      name RightUpLeg
      direction 0.000000 -1.000000 0.000000
      length 17.323638
      axis 0.0 0.0 0.0 xyz
      dof rx ry rz
   end
   begin
      id 28
      name RightLeg
      direction 0.000000 -1.000000 0.000000
      length 16.270368
      axis 0.0 0.0 0.0 xyz
      dof rx ry rz
   end
   begin
      id 29
      name RightFoot
      direction 0.000000 -0.258819 0.965926
      length 4.922846
      axis 15.0 0.0 0.0 xyz
      dof rx ry rz
   end
   begin
      id 30
      name RightToeBase
      direction 0.000000 0.000000 1.000000
      length 2.952750
      axis 0.0 0.0 0.0 xyz
      dof rx ry rz
   end
:hierarchy
   begin
      root Spine_dum LeftUpLeg_dum RightUpLeg_dum
      Spine_dum Spine
      LeftUpLeg_dum LeftUpLeg
      RightUpLeg_dum RightUpLeg
      Spine Spine_dum1 Spine_dum2 Spine_dum3
      Spine_dum1 Head
      Spine_dum2 LeftShoulder
      Spine_dum3 RightShoulder
      LeftShoulder LeftArm
      LeftArm LeftForeArm
      LeftForeArm LeftHand
      LeftHand LeftHand_dum1 LeftHand_dum2
      LeftHand_dum1 LeftHandThumb1
      RightShoulder RightArm
      RightArm RightForeArm
      RightForeArm RightHand
      RightHand RightHand_dum1 RightHand_dum2
      RightHand_dum1 RightHandThumb1
      LeftUpLeg LeftLeg
      LeftLeg LeftFoot
      LeftFoot LeftToeBase
      RightUpLeg RightLeg
      RightLeg RightFoot
      RightFoot RightToeBase
   end

# File created by Blade
# Date/Time:  Fri Jan 16 17:53:05 2015
# Frame Rate: 120.000 fps
#------------------------------------------------------
:FULLY-SPECIFIED
:DEGREES
145
root -5.525821 35.401632 -11.457372 -3.053198 -4.275971 -5.392047
Spine 0.511046 -0.194336 10.502899
Head 18.196890 21.422902 -5.928880
LeftShoulder -22.572759 14.188349 2.621581
LeftArm 33.915122 -51.779103 -32.732960
LeftForeArm 19.179738 -0.000000 15.570338
LeftHand -7.688708 0.000000 -8.333778
LeftHandThumb1 -26.253704 0.000000 33.147579
RightShoulder -4.659886 10.306168 -21.183350
RightArm 2.135141 17.470679 12.001074
RightForeArm -33.165879 -0.000000 18.703824
RightHand -3.431376 -0.000000 12.187718
RightHandThumb1 -24.326973 -0.000000 -32.862282
LeftUpLeg 11.535330 12.663759 4.226522
LeftLeg -7.904572 -0.000000 0.000000
LeftFoot -15.581895 28.880493 -8.960149
LeftToeBase 21.983755 -0.000000 -0.000000
RightUpLeg 8.002590 -5.187810 5.314824
RightLeg -3.205341 -0.000000 0.000000
RightFoot -3.807681 -27.388460 1.938430
RightToeBase 13.850934 -0.000000 -0.000000
146
root -5.525402 35.403671 -11.467639 -3.079754 -4.300832 -5.386347
Spine 0.585694 -0.178776 10.513610
Head 18.802968 22.136946 -5.572956
LeftShoulder -22.689574 14.293170 2.354723
LeftArm 33.675997 -51.675238 -32.596514
LeftForeArm 18.863190 -0.000000 16.470746
LeftHand -7.711169 -0.000000 -8.189176
LeftHandThumb1 -26.253704 0.000000 33.147579
RightShoulder -4.515554 10.113063 -21.171864
RightArm 1.647415 17.288677 12.143116
RightForeArm -32.766186 -0.000000 19.429166
RightHand -3.708884 0.000000 11.566642
RightHandThumb1 -24.326973 -0.000000 -32.862282
LeftUpLeg 11.570887 12.661579 4.221975
LeftLeg -7.945518 -0.000000 0.000000
LeftFoot -15.537475 28.865580 -9.065055
LeftToeBase 21.798612 -0.000000 -0.000000
RightUpLeg 8.000655 -5.166038 5.309878
RightLeg -3.187507 -0.000000 0.000000
RightFoot -3.785090 -27.366561 2.001679
RightToeBase 13.649409 -0.000000 -0.000000
147
root -5.528594 35.405302 -11.479702 -3.125234 -4.300527 -5.377510
Spine 0.689172 -0.181314 10.494204
Head 19.419024 22.769618 -5.265741
LeftShoulder -22.834673 14.384385 2.073307
LeftArm 33.611355 -51.677708 -32.637840
LeftForeArm 18.713843 -0.000000 17.396016
LeftHand -7.593448 0.000000 -8.048049
LeftHandThumb1 -26.253704 0.000000 33.147579
RightShoulder -4.371612 9.894958 -21.075148
RightArm 1.198435 17.132607 12.240614
RightForeArm -32.394077 -0.000000 20.019547
RightHand -3.708516 -0.000000 10.687589
RightHandThumb1 -24.326973 -0.000000 -32.862282
LeftUpLeg 11.567310 12.718895 4.233430
LeftLeg -7.887264 -0.000000 0.000000
LeftFoot -15.548908 28.845204 -8.988660
LeftToeBase 21.978183 -0.000000 -0.000000
RightUpLeg 8.015996 -5.178134 5.304555
RightLeg -3.167070 -0.000000 0.000000
RightFoot -3.785238 -27.364243 1.990470
RightToeBase 13.691868 -0.000000 -0.000000
148
root -5.533070 35.406778 -11.491691 -3.160302 -4.324416 -5.371891
Spine 0.793951 -0.154875 10.476602
Head 20.035221 23.381658 -4.988165
LeftShoulder -22.984558 14.490041 1.798222
LeftArm 33.493311 -51.691007 -32.687622
LeftForeArm 18.291923 -0.000000 18.398583
LeftHand -7.407906 -0.000000 -8.058652
LeftHandThumb1 -26.253704 0.000000 33.147579
RightShoulder -4.275363 9.659299 -20.992808
RightArm 0.761101 16.996440 12.411249
RightForeArm -31.934538 -0.000000 20.667578
RightHand -3.888320 -0.000000 9.791820
RightHandThumb1 -24.326973 -0.000000 -32.862282
LeftUpLeg 11.577875 12.748782 4.246150
LeftLeg -7.864868 -0.000000 0.000000
LeftFoot -15.524065 28.791156 -9.057980
LeftToeBase 21.811847 -0.000000 -0.000000
RightUpLeg 8.028677 -5.135262 5.310096
RightLeg -3.164001 -0.000000 0.000000
RightFoot -3.760484 -27.396786 1.933801
RightToeBase 13.801876 -0.000000 -0.000000
